<svg id="visual" viewBox="0 0 900 600" width="900" height="600" xmlns="http://www.w3.org/2000/svg" xmlns:xlink="http://www.w3.org/1999/xlink" version="1.1"><rect x="0" y="0" width="900" height="600" fill="#048c6f"></rect><path d="M0 401L43 381L86 415L129 408L171 394L214 407L257 377L300 414L343 385L386 392L429 418L471 414L514 404L557 406L600 403L643 419L686 401L729 412L771 376L814 380L857 420L900 424L900 601L857 601L814 601L771 601L729 601L686 601L643 601L600 601L557 601L514 601L471 601L429 601L386 601L343 601L300 601L257 601L214 601L171 601L129 601L86 601L43 601L0 601Z" fill="#037c62"></path><path d="M0 432L43 395L86 412L129 416L171 398L214 421L257 398L300 395L343 390L386 416L429 409L471 428L514 403L557 427L600 435L643 426L686 435L729 396L771 401L814 408L857 397L900 423L900 601L857 601L814 601L771 601L729 601L686 601L643 601L600 601L557 601L514 601L471 601L429 601L386 601L343 601L300 601L257 601L214 601L171 601L129 601L86 601L43 601L0 601Z" fill="#02735b"></path><path d="M0 432L43 429L86 439L129 416L171 408L214 432L257 413L300 421L343 422L386 412L429 420L471 441L514 444L557 451L600 434L643 417L686 422L729 436L771 443L814 413L857 445L900 420L900 601L857 601L814 601L771 601L729 601L686 601L643 601L600 601L557 601L514 601L471 601L429 601L386 601L343 601L300 601L257 601L214 601L171 601L129 601L86 601L43 601L0 601Z" fill="#016a54"></path><path d="M0 441L43 466L86 465L129 469L171 440L214 428L257 428L300 449L343 435L386 436L429 439L471 469L514 468L557 452L600 448L643 460L686 428L729 437L771 449L814 459L857 441L900 432L900 601L857 601L814 601L771 601L729 601L686 601L643 601L600 601L557 601L514 601L471 601L429 601L386 601L343 601L300 601L257 601L214 601L171 601L129 601L86 601L43 601L0 601Z" fill="#01614d"></path><path d="M0 446L43 472L86 466L129 477L171 471L214 462L257 462L300 472L343 463L386 446L429 466L471 446L514 466L557 482L600 471L643 454L686 462L729 454L771 462L814 478L857 482L900 465L900 601L857 601L814 601L771 601L729 601L686 601L643 601L600 601L557 601L514 601L471 601L429 601L386 601L343 601L300 601L257 601L214 601L171 601L129 601L86 601L43 601L0 601Z" fill="#015846"></path><path d="M0 486L43 474L86 482L129 501L171 475L214 480L257 473L300 497L343 464L386 491L429 465L471 467L514 491L557 496L600 477L643 472L686 487L729 493L771 496L814 473L857 477L900 479L900 601L857 601L814 601L771 601L729 601L686 601L643 601L600 601L557 601L514 601L471 601L429 601L386 601L343 601L300 601L257 601L214 601L171 601L129 601L86 601L43 601L0 601Z" fill="#014f3f"></path><path d="M0 509L43 495L86 479L129 502L171 514L214 508L257 514L300 509L343 493L386 479L429 502L471 491L514 506L557 487L600 490L643 506L686 489L729 512L771 496L814 513L857 504L900 493L900 601L857 601L814 601L771 601L729 601L686 601L643 601L600 601L557 601L514 601L471 601L429 601L386 601L343 601L300 601L257 601L214 601L171 601L129 601L86 601L43 601L0 601Z" fill="#014739"></path><path d="M0 519L43 501L86 530L129 504L171 497L214 509L257 518L300 502L343 521L386 504L429 525L471 497L514 532L557 526L600 521L643 496L686 530L729 506L771 531L814 512L857 496L900 523L900 601L857 601L814 601L771 601L729 601L686 601L643 601L600 601L557 601L514 601L471 601L429 601L386 601L343 601L300 601L257 601L214 601L171 601L129 601L86 601L43 601L0 601Z" fill="#013e32"></path><path d="M0 527L43 546L86 537L129 532L171 531L214 529L257 528L300 527L343 530L386 526L429 520L471 545L514 541L557 537L600 545L643 536L686 519L729 518L771 521L814 525L857 537L900 545L900 601L857 601L814 601L771 601L729 601L686 601L643 601L600 601L557 601L514 601L471 601L429 601L386 601L343 601L300 601L257 601L214 601L171 601L129 601L86 601L43 601L0 601Z" fill="#01362b"></path><path d="M0 543L43 538L86 552L129 543L171 548L214 540L257 558L300 554L343 534L386 547L429 548L471 560L514 543L557 537L600 533L643 542L686 553L729 552L771 563L814 560L857 535L900 558L900 601L857 601L814 601L771 601L729 601L686 601L643 601L600 601L557 601L514 601L471 601L429 601L386 601L343 601L300 601L257 601L214 601L171 601L129 601L86 601L43 601L0 601Z" fill="#022e25"></path><path d="M0 553L43 567L86 571L129 565L171 554L214 570L257 554L300 557L343 574L386 564L429 556L471 575L514 572L557 554L600 563L643 577L686 566L729 550L771 552L814 567L857 552L900 562L900 601L857 601L814 601L771 601L729 601L686 601L643 601L600 601L557 601L514 601L471 601L429 601L386 601L343 601L300 601L257 601L214 601L171 601L129 601L86 601L43 601L0 601Z" fill="#02261e"></path><path d="M0 591L43 586L86 568L129 577L171 587L214 574L257 592L300 591L343 585L386 590L429 591L471 572L514 584L557 587L600 582L643 568L686 568L729 589L771 574L814 589L857 578L900 580L900 601L857 601L814 601L771 601L729 601L686 601L643 601L600 601L557 601L514 601L471 601L429 601L386 601L343 601L300 601L257 601L214 601L171 601L129 601L86 601L43 601L0 601Z" fill="#001f18"></path></svg>